<svg id="Layer_1" data-name="Layer 1" xmlns="http://www.w3.org/2000/svg" xmlns:xlink="http://www.w3.org/1999/xlink" viewBox="0 0 84.54 117.26"><defs><style>.cls-1{fill:url(#linear-gradient);}</style><linearGradient id="linear-gradient" x1="59.98" y1="181.87" x2="56.91" y2="-1.41" gradientUnits="userSpaceOnUse"><stop offset="0" stop-color="#fff"/><stop offset="0.76" stop-color="#ab001e"/></linearGradient></defs><path class="cls-1" d="M32,61S59,88,80,87c0,0-24-12-31-23,0,0,38-18,34-43C83,21,86,38,32,61Z"/><path d="M20,35a6.83,6.83,0,0,1-4,4A21.61,21.61,0,0,0,0,54s17-8,27,0c0,0,64-15,57-54,0,0-1,30-58,42C26,42,19,45,20,35Z"/><path d="M6.33,112.8h-2v-11H6.33Z"/><path d="M20,112a1,1,0,0,1-.08.4,1.21,1.21,0,0,1-.22.32,1,1,0,0,1-.33.21,1.09,1.09,0,0,1-.4.07,1.21,1.21,0,0,1-.38-.06.89.89,0,0,1-.35-.23l-7.48-7.58v7.72h-2V102.69a.93.93,0,0,1,.18-.55,1.07,1.07,0,0,1,.45-.37,1,1,0,0,1,.6-.06,1,1,0,0,1,.53.28L18,109.56v-7.71H20Z"/><path d="M32.64,103.83h-8.2v9H22.39v-10a1,1,0,0,1,.08-.39.89.89,0,0,1,.21-.32.91.91,0,0,1,.33-.22,1.1,1.1,0,0,1,.41-.07h9.22Zm-.91,4.49H25.26v-2h6.47Z"/><path d="M46.08,108.37a4.61,4.61,0,0,1-.35,1.84,4.35,4.35,0,0,1-1,1.45,4.27,4.27,0,0,1-1.49,1,5,5,0,0,1-1.88.34H38.6a5,5,0,0,1-1.88-.34,4.37,4.37,0,0,1-2.49-2.4,4.61,4.61,0,0,1-.36-1.84v-2.09a4.61,4.61,0,0,1,.36-1.84,4.35,4.35,0,0,1,1-1.45,4.46,4.46,0,0,1,1.5-.95,5,5,0,0,1,1.88-.35h2.77a5,5,0,0,1,1.88.35,4.42,4.42,0,0,1,1.49.95,4.35,4.35,0,0,1,1,1.45,4.61,4.61,0,0,1,.35,1.84Zm-2-2.09a2.79,2.79,0,0,0-.2-1.07,2.44,2.44,0,0,0-.54-.82,2.48,2.48,0,0,0-.84-.52,2.94,2.94,0,0,0-1.09-.19H38.6a2.94,2.94,0,0,0-1.09.19,2.53,2.53,0,0,0-.85.52,2.3,2.3,0,0,0-.54.82,2.79,2.79,0,0,0-.2,1.07v2.09a2.83,2.83,0,0,0,.2,1.07,2.26,2.26,0,0,0,.54.81,2.4,2.4,0,0,0,.85.53,2.94,2.94,0,0,0,1.09.19h2.76a2.94,2.94,0,0,0,1.09-.19,2.41,2.41,0,0,0,1.39-1.34,2.83,2.83,0,0,0,.2-1.07Z"/><path d="M59.4,105.53a3.76,3.76,0,0,1-.18,1.21,3.28,3.28,0,0,1-1.15,1.65,3.88,3.88,0,0,1-.81.47,3.36,3.36,0,0,1-.85.27,3.85,3.85,0,0,1-.8.09l4.27,3.58H56.72l-4.27-3.58H51v-2h4.64a2.56,2.56,0,0,0,.7-.15,1.89,1.89,0,0,0,.55-.34,1.43,1.43,0,0,0,.36-.52,1.84,1.84,0,0,0,.13-.69v-1.26a.55.55,0,0,0-.05-.25.24.24,0,0,0-.11-.13.24.24,0,0,0-.14,0H50.16v9h-2v-10a.85.85,0,0,1,.08-.39.89.89,0,0,1,.21-.32.83.83,0,0,1,.33-.22,1.1,1.1,0,0,1,.41-.07h7.77a2.52,2.52,0,0,1,1.16.24,2.34,2.34,0,0,1,.77.6,2.31,2.31,0,0,1,.43.78,3,3,0,0,1,.13.79Z"/><path d="M71.57,112.8H64.18a3.31,3.31,0,0,1-.61-.06,3.33,3.33,0,0,1-1.26-.56,2.62,2.62,0,0,1-.52-.53,2.2,2.2,0,0,1-.35-.72,2.91,2.91,0,0,1-.14-.92v-5.38a2.55,2.55,0,0,1,.07-.59,3,3,0,0,1,.58-1.22,2.67,2.67,0,0,1,.55-.5,2.59,2.59,0,0,1,.73-.34,3.12,3.12,0,0,1,1-.13h7.39v2H64.18a.85.85,0,0,0-.62.21.82.82,0,0,0-.21.61V110a.76.76,0,0,0,.22.59.78.78,0,0,0,.61.21h7.39Z"/><path d="M83.71,112.8H76.32a3.69,3.69,0,0,1-.93-.14,2.94,2.94,0,0,1-.93-.48,2.65,2.65,0,0,1-.72-.86,2.76,2.76,0,0,1-.28-1.31v-7.16a1,1,0,0,1,.07-.39,1.07,1.07,0,0,1,.22-.32.83.83,0,0,1,.33-.22,1.07,1.07,0,0,1,.41-.07h9.22v2H75.5V110a.78.78,0,0,0,.22.6.84.84,0,0,0,.62.2h7.37Zm-.92-4.48H76.32v-2h6.47Z"/></svg>